<svg width="22" height="16" viewBox="0 0 22 16" fill="none" xmlns="http://www.w3.org/2000/svg">
<path opacity="0.4" fill-rule="evenodd" clip-rule="evenodd" d="M2.72938 13.2709C1.31587 11.8234 1.31587 9.51246 2.72938 8.06503L7.9367 2.73274C9.39842 1.23594 11.8058 1.23594 13.2675 2.73274C14.681 4.18017 14.681 6.49116 13.2675 7.93859L8.06017 13.2709C6.59845 14.7677 4.19111 14.7677 2.72938 13.2709Z" fill="#4E5969"/>
<path opacity="0.6" fill-rule="evenodd" clip-rule="evenodd" d="M7.94081 2.7323C9.40253 1.23549 11.8099 1.23549 13.2716 2.7323L18.4789 8.06459C19.8924 9.51202 19.8924 11.823 18.4789 13.2704C17.0172 14.7672 14.6098 14.7672 13.1481 13.2704L7.94081 7.93815C6.5273 6.49071 6.5273 4.17973 7.94081 2.7323Z" fill="#4E5969"/>
<path fill-rule="evenodd" clip-rule="evenodd" d="M7.73834 2.93044C9.30775 1.32337 11.8925 1.32337 13.4619 2.93045L15.8074 5.33229L10.6001 10.6646L5.39278 5.33229L7.73834 2.93044Z" fill="#4E5969"/>
</svg>
