<svg width="48" height="18" viewBox="0 0 48 18" fill="none" xmlns="http://www.w3.org/2000/svg">
<path fill-rule="evenodd" clip-rule="evenodd" d="M1 8.50326V15.4616H10.7917H20.5833V16.5033V17.5449H24.7083H28.8333V16.5033V15.4616H37.625H46.4167V9.54492V3.62826H27.8333H9.25V2.58659V1.54492H5.125H1V8.50326ZM7.23408 4.62684L7.20833 5.62542L9 5.64767L10.7917 5.66992V9.54492V13.4199L6.9375 13.4416L3.08333 13.4633V8.54576V3.62826H5.17158H7.25983L7.23408 4.62684ZM20.625 9.54492V13.4199H19.7083H18.7917L18.7698 10.3158L18.748 7.21159H17.75H16.752L16.7302 10.3158L16.7083 13.4199H14.7917H12.875L12.8533 9.62826C12.8413 7.54284 12.8497 5.78934 12.8718 5.73159C12.9036 5.64884 13.7279 5.63117 16.7685 5.64826L20.625 5.66992V9.54492ZM30.4167 9.54492V13.4616H28.625H26.8333V14.4616V15.4616H24.75H22.6667V10.5449V5.62826H26.5417H30.4167V9.54492ZM44.3333 9.54776V13.4673L43.4375 13.4436L42.5417 13.4199L42.5198 10.3158L42.498 7.21159H41.5H40.502L40.4802 10.3158L40.4583 13.4199L39.4375 13.4433L38.4167 13.4668V10.3392V7.21159H37.4177H36.4187L36.3968 10.3158L36.375 13.4199L34.4375 13.4423L32.5 13.4647V9.54642V5.62826H38.4167H44.3333V9.54776ZM7.20833 9.54492V11.5449H8.22917H9.25V9.54492V7.54492H8.22917H7.20833V9.54492ZM26.8333 9.54492V11.5449H27.8333H28.8333V9.54492V7.54492H27.8333H26.8333V9.54492Z" fill="#2C50AA"/>
</svg>
