<svg width="20" height="20" viewBox="0 0 20 20" fill="none" xmlns="http://www.w3.org/2000/svg">
<g clip-path="url(#clip0)">
<path d="M9.76854 19.0058L13.3612 7.94873H6.17578L9.76846 19.0058H9.76854Z" fill="#E24329"/>
<path d="M9.76835 19.0055L6.1756 7.94849H1.14062L9.76835 19.0055Z" fill="#FC6D26"/>
<path d="M1.14085 7.94849L0.049107 11.3087C0.000564625 11.4581 0.000557929 11.619 0.0490879 11.7684C0.0976178 11.9178 0.192193 12.0479 0.319259 12.1403L9.76857 19.0056L1.14078 7.94856L1.14085 7.94849Z" fill="#FCA326"/>
<path d="M1.14062 7.94859H6.17559L4.01185 1.28897C3.9005 0.946282 3.41572 0.946358 3.30444 1.28897L1.14062 7.94859Z" fill="#E24329"/>
<path d="M9.76839 19.0055L13.3611 7.94849H18.3961L9.76831 19.0055H9.76839Z" fill="#FC6D26"/>
<path d="M18.3963 7.94849L19.488 11.3087C19.5365 11.4581 19.5365 11.619 19.488 11.7684C19.4395 11.9178 19.3449 12.048 19.2178 12.1403L9.76855 19.0056L18.3963 7.94856V7.94849Z" fill="#FCA326"/>
<path d="M18.3961 7.94859H13.3611L15.5249 1.28897C15.6363 0.946282 16.121 0.946358 16.2323 1.28897L18.3961 7.94859Z" fill="#E24329"/>
</g>
<defs>
<clipPath id="clip0">
<rect width="19.5254" height="18" fill="white" transform="translate(0 1)"/>
</clipPath>
</defs>
</svg>
