<svg width="20" height="20" viewBox="0 0 20 20" fill="none" xmlns="http://www.w3.org/2000/svg">
<g clip-path="url(#clip0)">
<path d="M20.0006 0.198975L15.0847 5.51117C15.0499 5.5479 15.0344 5.6001 15.046 5.65036C15.1098 5.95772 15.0228 6.28828 14.7851 6.52606C14.4043 6.90688 13.7876 6.90108 13.4126 6.51253L9.49414 10.4271L9.88076 15.6001L14.2786 19.9979L20.0006 0.198975Z" fill="#86909C"/>
<path d="M19.9413 0.33252L15.0795 5.58672C15.0447 5.62345 15.0312 5.67565 15.0408 5.72591C15.1027 6.02941 15.0176 6.3561 14.7818 6.59194C14.4068 6.96697 13.794 6.9631 13.4247 6.57841L9.57398 10.4253C9.55851 10.4408 9.55078 10.464 9.55078 10.4852L9.9316 15.5674L19.7344 0.777136L19.9413 0.33252Z" fill="#4E5969"/>
<path d="M19.8009 0L14.4887 4.91398C14.452 4.94877 14.3998 4.96424 14.3495 4.95264C14.0421 4.88885 13.7116 4.97584 13.4738 5.21361C13.093 5.59443 13.0988 6.2111 13.4873 6.58612L9.57085 10.5045L4.39784 10.1179L0 5.72008L19.8009 0Z" fill="#C9CDD4"/>
<path d="M19.6684 0.0598145L14.4123 4.92159C14.3756 4.95639 14.3234 4.96992 14.2731 4.96026C13.9696 4.8984 13.6429 4.98345 13.4071 5.21929C13.0321 5.59432 13.0359 6.20712 13.4206 6.57634L9.57372 10.4252C9.55826 10.4406 9.53506 10.4484 9.5138 10.4484L4.43164 10.0675L19.2219 0.264724L19.6684 0.0598145Z" fill="#86909C"/>
</g>
<defs>
<clipPath id="clip0">
<rect width="20" height="20" fill="white"/>
</clipPath>
</defs>
</svg>
