<svg width="48" height="48" viewBox="0 0 48 48" fill="none" xmlns="http://www.w3.org/2000/svg" stroke="currentColor" stroke-width="4">
<path d="M9 41.5H39C40.1046 41.5 41 40.6046 41 39.5V19.5C41 18.3954 40.1046 17.5 39 17.5H9C7.89543 17.5 7 18.3954 7 19.5V39.5C7 40.6046 7.89543 41.5 9 41.5Z" stroke-linecap="butt"></path>
<path d="M16 14.5C16 10.0817 19.5817 6.5 24 6.5C28.4183 6.5 32 10.0817 32 14.5V17.5H16V14.5Z" stroke-linecap="butt"></path>
<path d="M28 29.5C28 31.7091 26.2091 33.5 24 33.5C21.7909 33.5 20 31.7091 20 29.5C20 27.2909 21.7909 25.5 24 25.5C26.2091 25.5 28 27.2909 28 29.5Z" stroke-linecap="butt"></path>
</svg>