<svg width="48" height="48" viewBox="0 0 48 48" fill="none" stroke="currentColor" stroke-width="4" xmlns="http://www.w3.org/2000/svg">
<path d="M19.7143 14C15.2034 15.7839 12 20.3015 12 25.5927C12 26.7346 12.1492 27.8405 12.4286 28.8907M28.7143 14.1794C32.9982 16.0735 36 20.4706 36 25.5927C36 26.6637 35.8687 27.7031 35.6219 28.6945M17.3015 35.8886C19.2146 37.2218 21.5194 38 24 38C26.5496 38 28.9134 37.1779 30.8571 35.7761" />
<path d="M24 19C27.3137 19 30 16.3137 30 13C30 9.68629 27.3137 7 24 7C20.6863 7 18 9.68629 18 13C18 16.3137 20.6863 19 24 19Z" />
<path d="M36 40C39.3137 40 42 37.3137 42 34C42 30.6863 39.3137 28 36 28C32.6863 28 30 30.6863 30 34C30 37.3137 32.6863 40 36 40Z" />
<path d="M12 40C15.3137 40 18 37.3137 18 34C18 30.6863 15.3137 28 12 28C8.68629 28 6 30.6863 6 34C6 37.3137 8.68629 40 12 40Z" />
</svg>
